<svg width="545" height="378" viewBox="0 0 545 378" fill="none" xmlns="http://www.w3.org/2000/svg">
<g clip-path="url(#clip0_1_2)">
<path d="M269.698 64.2604C278.829 64.2604 286.231 56.4191 286.231 46.7463C286.231 37.0735 278.829 29.2322 269.698 29.2322C260.567 29.2322 253.165 37.0735 253.165 46.7463C253.165 56.4191 260.567 64.2604 269.698 64.2604Z" fill="#FD6584"/>
<path d="M306.701 38.4531C306.234 36.8335 305.331 35.3938 304.102 34.3111C302.873 33.2284 301.372 32.55 299.784 32.3594C299.747 32.3561 299.71 32.3561 299.673 32.3594C299.628 32.3447 299.583 32.3337 299.536 32.3266C294.001 31.5657 287.846 33.4155 283.703 37.443C282.165 38.9145 280.936 40.711 280.093 42.7167C279.325 41.6056 278.313 40.7095 277.145 40.106C275.976 39.5026 274.687 39.2099 273.387 39.2534C271.712 39.3707 270.111 40.0327 268.803 41.149C267.496 42.2653 266.545 43.7817 266.081 45.4913C266.03 45.7002 266.044 45.921 266.121 46.1207C266.198 46.3205 266.333 46.4885 266.508 46.5999C267.006 47.0511 267.598 47.3703 268.236 47.5313C269.604 47.8396 270.985 48.1217 272.366 48.3775C275.065 48.876 277.78 49.2805 280.508 49.591C282.31 49.7943 284.116 49.9561 285.926 50.0764C289.666 50.3256 293.425 50.3847 297.171 50.26C299.029 50.1944 300.812 50.1288 302.509 49.263C303.745 48.6189 304.801 47.6445 305.574 46.4359C306.301 45.2734 306.778 43.9561 306.973 42.5769C307.168 41.1977 307.075 39.7901 306.701 38.4531Z" fill="#E6E6E6"/>
<path d="M272.688 63.9691C272.656 63.2353 272.54 62.5083 272.341 61.8046C271.872 60.1851 270.968 58.7458 269.738 57.6633C268.508 56.5808 267.007 55.9022 265.418 55.7109C265.383 55.7076 265.348 55.7076 265.313 55.7109C265.266 55.6968 265.219 55.6859 265.17 55.6781C262.107 55.2805 258.998 55.619 256.074 56.6685C251.579 58.2625 247.635 61.4766 245.734 66.0682C244.965 64.9563 243.952 64.0598 242.782 63.4563C241.613 62.8528 240.322 62.5606 239.021 62.6048C237.346 62.7221 235.745 63.3841 234.437 64.5004C233.13 65.6168 232.179 67.1331 231.715 68.8428C231.667 69.0517 231.682 69.2714 231.759 69.4704C231.835 69.6695 231.97 69.8378 232.142 69.9513C232.641 70.4013 233.233 70.7204 233.87 70.8828C235.244 71.191 236.619 71.4731 238.006 71.7289C240.706 72.2274 243.418 72.6319 246.142 72.9424C251.677 73.5719 257.247 73.7954 262.811 73.6114C264.663 73.5458 266.452 73.4803 268.149 72.6144C269.383 71.9701 270.438 70.9956 271.208 69.7873C272.293 68.0739 272.813 66.0284 272.688 63.9691V63.9691Z" fill="#E6E6E6"/>
<path d="M488.016 276.486C488.254 288.428 486.698 300.334 483.408 311.758C483.292 312.173 483.154 312.588 483.016 313.003H415.179C416.148 307.944 417.688 303.027 419.764 298.357C425.409 285.664 434.626 274.802 443.728 264.013C456.263 249.148 468.499 234.404 470.435 215.072C475.403 223.096 479.369 231.769 482.232 240.873C478.727 242.249 475.509 244.338 472.762 247.024C472.001 247.781 471.195 248.879 471.587 249.929C471.955 250.807 472.969 251.101 473.868 251.296C476.034 251.735 478.2 252.174 480.366 252.589C482.071 252.955 483.799 253.297 485.527 253.639C487.046 261.153 487.88 268.804 488.016 276.486V276.486Z" fill="#F2F2F2"/>
<path d="M545 268.578C534.124 275.583 527.211 286.421 521.566 298.552C516.653 299.739 512.118 302.263 508.409 305.875C507.625 306.632 506.819 307.73 507.233 308.78C507.579 309.659 508.616 309.952 509.514 310.147C511.657 310.586 513.846 311.026 515.989 311.441C515.782 311.953 515.575 312.49 515.367 313.003H443.475C446.738 308.34 450.352 303.965 454.282 299.919C455.134 299.016 456.01 298.162 456.909 297.283C466.073 288.51 476.596 281.474 488.016 276.486C506.006 268.519 525.679 265.789 545 268.578Z" fill="#F2F2F2"/>
<path d="M455.457 313.003H391.445C391.095 307.573 391.126 302.123 391.537 296.697C394.095 263.183 411.307 231.256 437.276 211.923C433.958 224.445 435.663 236.894 439.12 249.392C438.636 249.563 438.152 249.709 437.714 249.904C434.209 251.28 430.991 253.37 428.244 256.056C427.483 256.812 426.677 257.911 427.069 258.96C427.414 259.839 428.451 260.132 429.35 260.327C431.516 260.767 433.682 261.206 435.825 261.621C437.553 261.987 439.281 262.329 441.009 262.695C441.816 262.841 442.622 263.012 443.429 263.183C443.544 263.476 443.613 263.745 443.728 264.013C447.784 275.852 452.208 287.788 454.282 299.919C454.795 302.964 455.149 306.036 455.342 309.122C455.411 310.415 455.457 311.709 455.457 313.003Z" fill="#F2F2F2"/>
<path d="M106.585 276.486C106.823 288.428 105.267 300.334 101.977 311.758C101.862 312.173 101.723 312.588 101.585 313.003H33.748C34.7177 307.944 36.2573 303.027 38.3336 298.357C43.9789 285.664 53.1959 274.802 62.2977 264.013C74.8328 249.148 87.0683 234.404 89.004 215.072C93.9726 223.096 97.9383 231.769 100.802 240.873C97.296 242.249 94.0786 244.338 91.3313 247.024C90.5708 247.781 89.7643 248.879 90.1561 249.929C90.5247 250.807 91.5386 251.101 92.4373 251.296C94.6032 251.735 96.7692 252.174 98.9352 252.589C100.64 252.955 102.369 253.297 104.097 253.639C105.616 261.153 106.449 268.804 106.585 276.486V276.486Z" fill="#F2F2F2"/>
<path d="M163.569 268.578C152.693 275.583 145.781 286.421 140.135 298.552C135.223 299.739 130.687 302.263 126.978 305.875C126.194 306.632 125.388 307.73 125.803 308.78C126.148 309.659 127.185 309.952 128.084 310.147C130.227 310.586 132.416 311.026 134.559 311.441C134.352 311.953 134.144 312.49 133.937 313.003H62.0442C65.3078 308.34 68.9219 303.965 72.8512 299.919C73.7037 299.016 74.5794 298.162 75.478 297.283C84.6425 288.51 95.1656 281.474 106.585 276.486C124.576 268.519 144.249 265.789 163.569 268.578V268.578Z" fill="#F2F2F2"/>
<path d="M74.0263 313.003H10.0143C9.6647 307.573 9.69553 302.123 10.1065 296.697C12.6642 263.183 29.8769 231.256 55.8458 211.923C52.5277 224.445 54.2328 236.894 57.6892 249.392C57.2054 249.563 56.7214 249.709 56.2836 249.904C52.778 251.28 49.5606 253.37 46.8132 256.056C46.0527 256.812 45.2463 257.911 45.638 258.96C45.9836 259.839 47.0205 260.132 47.9191 260.327C50.0851 260.767 52.2511 261.206 54.3941 261.621C56.1223 261.987 57.8505 262.329 59.5786 262.695C60.3851 262.841 61.1917 263.012 61.9981 263.183C62.1132 263.476 62.1825 263.745 62.2976 264.013C66.3531 275.852 70.7773 287.788 72.8511 299.919C73.3645 302.964 73.7183 306.036 73.9111 309.122C73.9802 310.415 74.0263 311.709 74.0263 313.003Z" fill="#F2F2F2"/>
<path d="M312.333 284.534L369.529 289.912L370.142 289.971V31.4392C369.938 31.2883 369.734 31.1375 369.529 30.9866C357.609 22.1542 344.715 14.8982 331.132 9.37996L328.21 52.0816L327.944 55.9911L325.052 98.3385L324.16 111.366L312.439 283.025L312.333 284.534Z" fill="#E6E6E6"/>
<path d="M170.888 26.6246C170.48 26.9001 170.071 27.1756 169.662 27.4642V289.971L170.888 289.853L227.465 284.534L227.36 283.025L215.638 111.365L214.747 98.3385L211.855 55.991L211.589 52.0816L208.524 7.30063C195.306 12.1542 182.674 18.6402 170.888 26.6246V26.6246Z" fill="#E6E6E6"/>
<path d="M169.662 27.4642C168.839 28.0283 168.015 28.6055 167.204 29.1893V293.553C167.204 300.158 170.901 305.694 175.842 307.105C176.649 307.336 177.482 307.453 178.319 307.452H362.099C362.933 307.454 363.764 307.337 364.57 307.105C366.406 306.565 368.071 305.509 369.387 304.048C371.897 301.206 373.269 297.444 373.214 293.553V33.7875C372.198 32.9938 371.177 32.2067 370.142 31.4392C369.938 31.2883 369.734 31.1375 369.529 30.9866V293.553C369.531 294.404 369.435 295.252 369.245 296.078C368.372 299.981 365.492 302.841 362.099 302.841H178.319C174.22 302.841 170.888 298.676 170.888 293.553V26.6246C170.48 26.9001 170.071 27.1756 169.662 27.4642Z" fill="#E6E6E6"/>
<path d="M371.371 52.0843H169.045V55.993H371.371V52.0843Z" fill="#E6E6E6"/>
<path d="M309.405 2.22365C308.179 1.90224 306.953 1.60051 305.714 1.31845V107.456H309.405V2.22365Z" fill="#E6E6E6"/>
<path d="M234.704 0C233.471 0.242698 232.239 0.491957 231.013 0.760893V107.456H234.704V0Z" fill="#E6E6E6"/>
<path d="M129.377 300.611C129.376 302.854 129.782 305.076 130.572 307.157C130.875 307.964 131.238 308.745 131.655 309.492C132.195 310.467 132.821 311.385 133.525 312.234C135.081 314.112 136.997 315.616 139.146 316.647C141.294 317.677 143.625 318.21 145.984 318.21H388.285C392.69 318.21 396.914 316.356 400.028 313.057C403.143 309.758 404.892 305.283 404.892 300.617C404.892 295.952 403.143 291.477 400.028 288.178C396.914 284.878 392.69 283.025 388.285 283.025H145.984C141.582 283.03 137.361 284.884 134.248 288.18C131.135 291.477 129.383 295.948 129.377 300.611V300.611Z" fill="#E6E6E6"/>
<path d="M169.045 111.367L370.142 111.367V98.3378L169.045 98.3378V111.367Z" fill="#E6E6E6"/>
<path d="M278.203 101.595H260.983C260.983 99.6945 261.696 97.8718 262.965 96.528C264.233 95.1841 265.954 94.4291 267.748 94.4291H271.438C272.326 94.4291 273.206 94.6144 274.027 94.9745C274.847 95.3347 275.593 95.8625 276.221 96.528C276.85 97.1934 277.348 97.9833 277.688 98.8528C278.028 99.7222 278.203 100.654 278.203 101.595V101.595H278.203Z" fill="#E6E6E6"/>
<path d="M0 310.66C5.3792 317.412 11.1974 323.757 17.4121 329.649H516.851C523.065 323.757 528.884 317.412 534.263 310.66H0Z" fill="#3F3D56"/>
<path d="M245.633 247.158V314.431H290.123V247.158C290.123 246.674 289.978 246.203 289.707 245.813C289.436 245.424 289.054 245.136 288.618 244.994C288.412 244.922 288.197 244.886 287.98 244.889H247.781C247.499 244.888 247.22 244.946 246.96 245.06C246.699 245.174 246.462 245.341 246.263 245.552C246.063 245.762 245.905 246.013 245.797 246.288C245.689 246.564 245.633 246.86 245.633 247.158V247.158ZM262.995 270.273C263.007 268.947 263.513 267.68 264.402 266.746C265.291 265.813 266.493 265.29 267.744 265.29C268.996 265.29 270.198 265.813 271.087 266.746C271.976 267.68 272.482 268.947 272.494 270.273V278.079C272.487 279.409 271.984 280.682 271.094 281.62C270.204 282.558 269 283.085 267.744 283.085C266.489 283.085 265.285 282.558 264.395 281.62C263.505 280.682 263.002 279.409 262.995 278.079V270.273Z" fill="#2F2E41"/>
<path d="M245.496 312.28V318.767C245.497 319.103 245.623 319.425 245.847 319.663C246.071 319.902 246.374 320.037 246.692 320.04H289.064C289.381 320.038 289.685 319.903 289.909 319.665C290.133 319.426 290.259 319.104 290.259 318.767V312.28H245.496Z" fill="#3F3D56"/>
<path d="M175.644 145.802V268.634C175.645 270.199 176.232 271.7 177.277 272.807C178.322 273.914 179.739 274.536 181.217 274.537H353.046C354.524 274.536 355.941 273.914 356.985 272.807C358.03 271.7 358.618 270.199 358.619 268.634V145.802C358.616 144.238 358.027 142.74 356.983 141.634C355.938 140.529 354.523 139.907 353.046 139.905H181.217C179.74 139.907 178.325 140.529 177.28 141.634C176.236 142.74 175.647 144.238 175.644 145.802V145.802Z" fill="#3F3D56"/>
<path d="M179.675 147.331V267.118C179.676 267.955 179.99 268.756 180.549 269.348C181.107 269.939 181.864 270.272 182.653 270.274H351.616C352.405 270.272 353.162 269.939 353.72 269.348C354.279 268.756 354.593 267.955 354.594 267.118V147.331C354.594 146.493 354.281 145.69 353.722 145.097C353.164 144.505 352.406 144.171 351.616 144.169H182.653C181.863 144.171 181.105 144.505 180.547 145.097C179.989 145.69 179.675 146.493 179.675 147.331V147.331Z" fill="#11D2C2"/>
<path d="M214.127 321.568C214.299 321.796 214.518 321.981 214.767 322.107C215.016 322.233 215.288 322.298 215.564 322.296H316.086C316.361 322.296 316.632 322.231 316.88 322.105C317.128 321.98 317.347 321.797 317.52 321.571C317.693 321.345 317.817 321.081 317.881 320.798C317.946 320.515 317.95 320.22 317.894 319.935L316.334 312.083C316.269 311.763 316.13 311.465 315.928 311.216C315.727 310.968 315.471 310.776 315.182 310.66C314.973 310.573 314.75 310.528 314.525 310.529H217.118C216.894 310.528 216.671 310.573 216.462 310.66C216.173 310.776 215.916 310.968 215.715 311.216C215.514 311.465 215.375 311.763 215.31 312.083L213.75 319.935C213.694 320.22 213.699 320.514 213.765 320.797C213.83 321.079 213.954 321.343 214.127 321.568Z" fill="#2F2E41"/>
<path d="M311.018 313.91H313.509C313.676 313.91 313.811 313.767 313.811 313.59V312.263C313.811 312.086 313.676 311.943 313.509 311.943H311.018C310.851 311.943 310.715 312.086 310.715 312.263V313.59C310.715 313.767 310.851 313.91 311.018 313.91Z" fill="#3F3D56"/>
<path d="M304.826 313.91H307.317C307.484 313.91 307.619 313.767 307.619 313.59V312.263C307.619 312.086 307.484 311.943 307.317 311.943H304.826C304.659 311.943 304.523 312.086 304.523 312.263V313.59C304.523 313.767 304.659 313.91 304.826 313.91Z" fill="#3F3D56"/>
<path d="M298.634 313.91H301.125C301.292 313.91 301.427 313.767 301.427 313.59V312.263C301.427 312.086 301.292 311.943 301.125 311.943H298.634C298.467 311.943 298.331 312.086 298.331 312.263V313.59C298.331 313.767 298.467 313.91 298.634 313.91Z" fill="#3F3D56"/>
<path d="M292.442 313.91H294.933C295.1 313.91 295.235 313.767 295.235 313.59V312.263C295.235 312.086 295.1 311.943 294.933 311.943H292.442C292.275 311.943 292.139 312.086 292.139 312.263V313.59C292.139 313.767 292.275 313.91 292.442 313.91Z" fill="#3F3D56"/>
<path d="M286.25 313.91H288.741C288.908 313.91 289.043 313.767 289.043 313.59V312.263C289.043 312.086 288.908 311.943 288.741 311.943H286.25C286.083 311.943 285.947 312.086 285.947 312.263V313.59C285.947 313.767 286.083 313.91 286.25 313.91Z" fill="#3F3D56"/>
<path d="M280.057 313.91H282.549C282.716 313.91 282.851 313.767 282.851 313.59V312.263C282.851 312.086 282.716 311.943 282.549 311.943H280.057C279.89 311.943 279.755 312.086 279.755 312.263V313.59C279.755 313.767 279.89 313.91 280.057 313.91Z" fill="#3F3D56"/>
<path d="M273.865 313.91H276.357C276.524 313.91 276.659 313.767 276.659 313.59V312.263C276.659 312.086 276.524 311.943 276.357 311.943H273.865C273.698 311.943 273.563 312.086 273.563 312.263V313.59C273.563 313.767 273.698 313.91 273.865 313.91Z" fill="#3F3D56"/>
<path d="M267.673 313.91H270.165C270.332 313.91 270.467 313.767 270.467 313.59V312.263C270.467 312.086 270.332 311.943 270.165 311.943H267.673C267.506 311.943 267.371 312.086 267.371 312.263V313.59C267.371 313.767 267.506 313.91 267.673 313.91Z" fill="#3F3D56"/>
<path d="M261.481 313.91H263.973C264.14 313.91 264.275 313.767 264.275 313.59V312.263C264.275 312.086 264.14 311.943 263.973 311.943H261.481C261.314 311.943 261.179 312.086 261.179 312.263V313.59C261.179 313.767 261.314 313.91 261.481 313.91Z" fill="#3F3D56"/>
<path d="M255.289 313.91H257.781C257.948 313.91 258.083 313.767 258.083 313.59V312.263C258.083 312.086 257.948 311.943 257.781 311.943H255.289C255.122 311.943 254.987 312.086 254.987 312.263V313.59C254.987 313.767 255.122 313.91 255.289 313.91Z" fill="#3F3D56"/>
<path d="M249.097 313.91H251.589C251.756 313.91 251.891 313.767 251.891 313.59V312.263C251.891 312.086 251.756 311.943 251.589 311.943H249.097C248.93 311.943 248.795 312.086 248.795 312.263V313.59C248.795 313.767 248.93 313.91 249.097 313.91Z" fill="#3F3D56"/>
<path d="M242.905 313.91H245.397C245.564 313.91 245.699 313.767 245.699 313.59V312.263C245.699 312.086 245.564 311.943 245.397 311.943H242.905C242.738 311.943 242.603 312.086 242.603 312.263V313.59C242.603 313.767 242.738 313.91 242.905 313.91Z" fill="#3F3D56"/>
<path d="M236.713 313.91H239.205C239.371 313.91 239.507 313.767 239.507 313.59V312.263C239.507 312.086 239.371 311.943 239.205 311.943H236.713C236.546 311.943 236.411 312.086 236.411 312.263V313.59C236.411 313.767 236.546 313.91 236.713 313.91Z" fill="#3F3D56"/>
<path d="M230.521 313.91H233.012C233.179 313.91 233.315 313.767 233.315 313.59V312.263C233.315 312.086 233.179 311.943 233.012 311.943H230.521C230.354 311.943 230.219 312.086 230.219 312.263V313.59C230.219 313.767 230.354 313.91 230.521 313.91Z" fill="#3F3D56"/>
<path d="M224.329 313.91H226.82C226.987 313.91 227.123 313.767 227.123 313.59V312.263C227.123 312.086 226.987 311.943 226.82 311.943H224.329C224.162 311.943 224.027 312.086 224.027 312.263V313.59C224.027 313.767 224.162 313.91 224.329 313.91Z" fill="#3F3D56"/>
<path d="M218.137 313.91H220.628C220.795 313.91 220.931 313.767 220.931 313.59V312.263C220.931 312.086 220.795 311.943 220.628 311.943H218.137C217.97 311.943 217.835 312.086 217.835 312.263V313.59C217.835 313.767 217.97 313.91 218.137 313.91Z" fill="#3F3D56"/>
<path d="M311.091 317.19H313.582C313.749 317.19 313.885 317.047 313.885 316.87V315.543C313.885 315.366 313.749 315.222 313.582 315.222H311.091C310.924 315.222 310.789 315.366 310.789 315.543V316.87C310.789 317.047 310.924 317.19 311.091 317.19Z" fill="#3F3D56"/>
<path d="M304.899 317.19H307.39C307.557 317.19 307.693 317.047 307.693 316.87V315.543C307.693 315.366 307.557 315.222 307.39 315.222H304.899C304.732 315.222 304.597 315.366 304.597 315.543V316.87C304.597 317.047 304.732 317.19 304.899 317.19Z" fill="#3F3D56"/>
<path d="M298.707 317.19H301.198C301.365 317.19 301.501 317.047 301.501 316.87V315.543C301.501 315.366 301.365 315.222 301.198 315.222H298.707C298.54 315.222 298.405 315.366 298.405 315.543V316.87C298.405 317.047 298.54 317.19 298.707 317.19Z" fill="#3F3D56"/>
<path d="M292.515 317.19H295.006C295.173 317.19 295.309 317.047 295.309 316.87V315.543C295.309 315.366 295.173 315.222 295.006 315.222H292.515C292.348 315.222 292.212 315.366 292.212 315.543V316.87C292.212 317.047 292.348 317.19 292.515 317.19Z" fill="#3F3D56"/>
<path d="M286.323 317.19H288.814C288.981 317.19 289.116 317.047 289.116 316.87V315.543C289.116 315.366 288.981 315.222 288.814 315.222H286.323C286.156 315.222 286.02 315.366 286.02 315.543V316.87C286.02 317.047 286.156 317.19 286.323 317.19Z" fill="#3F3D56"/>
<path d="M280.131 317.19H282.622C282.789 317.19 282.924 317.047 282.924 316.87V315.543C282.924 315.366 282.789 315.222 282.622 315.222H280.131C279.964 315.222 279.828 315.366 279.828 315.543V316.87C279.828 317.047 279.964 317.19 280.131 317.19Z" fill="#3F3D56"/>
<path d="M273.939 317.19H276.43C276.597 317.19 276.732 317.047 276.732 316.87V315.543C276.732 315.366 276.597 315.222 276.43 315.222H273.939C273.772 315.222 273.636 315.366 273.636 315.543V316.87C273.636 317.047 273.772 317.19 273.939 317.19Z" fill="#3F3D56"/>
<path d="M267.747 317.19H270.238C270.405 317.19 270.54 317.047 270.54 316.87V315.543C270.54 315.366 270.405 315.222 270.238 315.222H267.747C267.58 315.222 267.444 315.366 267.444 315.543V316.87C267.444 317.047 267.58 317.19 267.747 317.19Z" fill="#3F3D56"/>
<path d="M261.554 317.19H264.046C264.213 317.19 264.348 317.047 264.348 316.87V315.543C264.348 315.366 264.213 315.222 264.046 315.222H261.554C261.388 315.222 261.252 315.366 261.252 315.543V316.87C261.252 317.047 261.388 317.19 261.554 317.19Z" fill="#3F3D56"/>
<path d="M255.362 317.19H257.854C258.021 317.19 258.156 317.047 258.156 316.87V315.543C258.156 315.366 258.021 315.222 257.854 315.222H255.362C255.195 315.222 255.06 315.366 255.06 315.543V316.87C255.06 317.047 255.195 317.19 255.362 317.19Z" fill="#3F3D56"/>
<path d="M249.17 317.19H251.662C251.829 317.19 251.964 317.047 251.964 316.87V315.543C251.964 315.366 251.829 315.222 251.662 315.222H249.17C249.003 315.222 248.868 315.366 248.868 315.543V316.87C248.868 317.047 249.003 317.19 249.17 317.19Z" fill="#3F3D56"/>
<path d="M242.978 317.19H245.47C245.637 317.19 245.772 317.047 245.772 316.87V315.543C245.772 315.366 245.637 315.222 245.47 315.222H242.978C242.811 315.222 242.676 315.366 242.676 315.543V316.87C242.676 317.047 242.811 317.19 242.978 317.19Z" fill="#3F3D56"/>
<path d="M236.786 317.19H239.278C239.445 317.19 239.58 317.047 239.58 316.87V315.543C239.58 315.366 239.445 315.222 239.278 315.222H236.786C236.619 315.222 236.484 315.366 236.484 315.543V316.87C236.484 317.047 236.619 317.19 236.786 317.19Z" fill="#3F3D56"/>
<path d="M230.594 317.19H233.086C233.253 317.19 233.388 317.047 233.388 316.87V315.543C233.388 315.366 233.253 315.222 233.086 315.222H230.594C230.427 315.222 230.292 315.366 230.292 315.543V316.87C230.292 317.047 230.427 317.19 230.594 317.19Z" fill="#3F3D56"/>
<path d="M224.402 317.19H226.894C227.061 317.19 227.196 317.047 227.196 316.87V315.543C227.196 315.366 227.061 315.222 226.894 315.222H224.402C224.235 315.222 224.1 315.366 224.1 315.543V316.87C224.1 317.047 224.235 317.19 224.402 317.19Z" fill="#3F3D56"/>
<path d="M218.21 317.19H220.702C220.868 317.19 221.004 317.047 221.004 316.87V315.543C221.004 315.366 220.868 315.222 220.702 315.222H218.21C218.043 315.222 217.908 315.366 217.908 315.543V316.87C217.908 317.047 218.043 317.19 218.21 317.19Z" fill="#3F3D56"/>
<path d="M259.697 321.126H283.861C284.027 321.126 284.163 320.982 284.163 320.806V319.478C284.163 319.301 284.027 319.158 283.861 319.158H259.697C259.53 319.158 259.395 319.301 259.395 319.478V320.806C259.395 320.982 259.53 321.126 259.697 321.126Z" fill="#3F3D56"/>
<path d="M191.144 160.67H349.241C349.406 160.666 349.562 160.595 349.677 160.47C349.792 160.346 349.856 160.178 349.856 160.004C349.856 159.83 349.792 159.663 349.677 159.538C349.562 159.414 349.406 159.342 349.241 159.338H191.144C190.979 159.342 190.823 159.414 190.708 159.538C190.593 159.663 190.529 159.83 190.529 160.004C190.529 160.178 190.593 160.346 190.708 160.47C190.823 160.595 190.979 160.666 191.144 160.67V160.67Z" fill="#3F3D56"/>
<path d="M338.479 155.938C340.514 155.938 342.164 154.151 342.164 151.948C342.164 149.744 340.514 147.958 338.479 147.958C336.444 147.958 334.795 149.744 334.795 151.948C334.795 154.151 336.444 155.938 338.479 155.938Z" fill="#3F3D56"/>
<path d="M325.751 155.938C327.786 155.938 329.436 154.151 329.436 151.948C329.436 149.744 327.786 147.958 325.751 147.958C323.716 147.958 322.066 149.744 322.066 151.948C322.066 154.151 323.716 155.938 325.751 155.938Z" fill="#3F3D56"/>
<path d="M313.023 155.938C315.058 155.938 316.707 154.151 316.707 151.948C316.707 149.744 315.058 147.958 313.023 147.958C310.988 147.958 309.338 149.744 309.338 151.948C309.338 154.151 310.988 155.938 313.023 155.938Z" fill="#3F3D56"/>
<path d="M198.133 149.672C198.133 149.767 198.15 149.86 198.184 149.948C198.217 150.035 198.267 150.114 198.33 150.181C198.392 150.248 198.467 150.302 198.549 150.338C198.631 150.375 198.719 150.394 198.808 150.394H207.849C208.027 150.39 208.197 150.311 208.322 150.176C208.447 150.04 208.517 149.858 208.517 149.669C208.517 149.48 208.447 149.298 208.322 149.162C208.197 149.027 208.027 148.949 207.849 148.944H198.808C198.628 148.947 198.456 149.024 198.329 149.161C198.203 149.297 198.132 149.481 198.133 149.672V149.672Z" fill="#3F3D56"/>
<path d="M198.133 152.395C198.133 152.489 198.15 152.582 198.184 152.67C198.217 152.757 198.267 152.836 198.33 152.903C198.392 152.97 198.467 153.024 198.549 153.06C198.631 153.097 198.719 153.116 198.808 153.116H207.849C208.028 153.112 208.198 153.034 208.323 152.898C208.448 152.763 208.518 152.581 208.518 152.391C208.518 152.202 208.448 152.02 208.323 151.884C208.198 151.749 208.028 151.671 207.849 151.666H198.808C198.628 151.669 198.456 151.747 198.329 151.883C198.203 152.019 198.132 152.203 198.133 152.395V152.395Z" fill="#3F3D56"/>
<path d="M198.133 155.11C198.132 155.301 198.203 155.485 198.329 155.622C198.456 155.758 198.628 155.836 198.808 155.838H207.849C208.027 155.834 208.197 155.756 208.322 155.62C208.447 155.485 208.517 155.303 208.517 155.113C208.517 154.924 208.447 154.742 208.322 154.607C208.197 154.471 208.027 154.393 207.849 154.389H198.808C198.719 154.389 198.631 154.408 198.549 154.445C198.467 154.481 198.392 154.534 198.33 154.601C198.267 154.668 198.217 154.748 198.184 154.835C198.15 154.922 198.133 155.016 198.133 155.11V155.11Z" fill="#3F3D56"/>
<path d="M200.927 176.148H197.679C196.694 176.148 195.896 176.994 195.896 178.037C195.896 179.081 196.694 179.926 197.679 179.926H200.927C201.912 179.926 202.711 179.081 202.711 178.037C202.711 176.994 201.912 176.148 200.927 176.148Z" fill="#E6E6E6"/>
<path d="M238.08 176.148H234.831C233.846 176.148 233.048 176.994 233.048 178.037C233.048 179.081 233.846 179.926 234.831 179.926H238.08C239.065 179.926 239.863 179.081 239.863 178.037C239.863 176.994 239.065 176.148 238.08 176.148Z" fill="#E6E6E6"/>
<path d="M248.606 176.148H245.358C244.373 176.148 243.574 176.994 243.574 178.037C243.574 179.081 244.373 179.926 245.358 179.926H248.606C249.591 179.926 250.389 179.081 250.389 178.037C250.389 176.994 249.591 176.148 248.606 176.148Z" fill="#E6E6E6"/>
<path d="M227.974 175.833H207.784C206.799 175.833 206.001 176.679 206.001 177.722C206.001 178.766 206.799 179.611 207.784 179.611H227.974C228.959 179.611 229.757 178.766 229.757 177.722C229.757 176.679 228.959 175.833 227.974 175.833Z" fill="#E6E6E6"/>
<path d="M277.51 175.833H257.321C256.336 175.833 255.538 176.679 255.538 177.722C255.538 178.766 256.336 179.611 257.321 179.611H277.51C278.495 179.611 279.294 178.766 279.294 177.722C279.294 176.679 278.495 175.833 277.51 175.833Z" fill="#E6E6E6"/>
<path d="M210.835 184.676H207.586C206.601 184.676 205.803 185.521 205.803 186.565C205.803 187.608 206.601 188.454 207.586 188.454H210.835C211.819 188.454 212.618 187.608 212.618 186.565C212.618 185.521 211.819 184.676 210.835 184.676Z" fill="#E6E6E6"/>
<path d="M247.987 184.676H244.738C243.754 184.676 242.955 185.521 242.955 186.565C242.955 187.608 243.754 188.454 244.738 188.454H247.987C248.972 188.454 249.77 187.608 249.77 186.565C249.77 185.521 248.972 184.676 247.987 184.676Z" fill="#E6E6E6"/>
<path d="M258.513 184.676H255.265C254.28 184.676 253.482 185.521 253.482 186.565C253.482 187.608 254.28 188.454 255.265 188.454H258.513C259.498 188.454 260.297 187.608 260.297 186.565C260.297 185.521 259.498 184.676 258.513 184.676Z" fill="#E6E6E6"/>
<path d="M237.881 184.361H217.692C216.707 184.361 215.908 185.206 215.908 186.25C215.908 187.293 216.707 188.139 217.692 188.139H237.881C238.866 188.139 239.665 187.293 239.665 186.25C239.665 185.206 238.866 184.361 237.881 184.361Z" fill="#E6E6E6"/>
<path d="M287.418 184.361H267.228C266.243 184.361 265.445 185.206 265.445 186.25C265.445 187.293 266.243 188.139 267.228 188.139H287.418C288.403 188.139 289.201 187.293 289.201 186.25C289.201 185.206 288.403 184.361 287.418 184.361Z" fill="#E6E6E6"/>
<path d="M220.742 193.203H217.493C216.509 193.203 215.71 194.048 215.71 195.092C215.71 196.135 216.509 196.981 217.493 196.981H220.742C221.727 196.981 222.525 196.135 222.525 195.092C222.525 194.048 221.727 193.203 220.742 193.203Z" fill="#E6E6E6"/>
<path d="M257.894 193.203H254.646C253.661 193.203 252.862 194.048 252.862 195.092C252.862 196.135 253.661 196.981 254.646 196.981H257.894C258.879 196.981 259.677 196.135 259.677 195.092C259.677 194.048 258.879 193.203 257.894 193.203Z" fill="#E6E6E6"/>
<path d="M268.421 193.203H265.172C264.187 193.203 263.389 194.048 263.389 195.092C263.389 196.135 264.187 196.981 265.172 196.981H268.421C269.406 196.981 270.204 196.135 270.204 195.092C270.204 194.048 269.406 193.203 268.421 193.203Z" fill="#E6E6E6"/>
<path d="M247.789 192.888H227.599C226.614 192.888 225.816 193.734 225.816 194.777C225.816 195.82 226.614 196.666 227.599 196.666H247.789C248.774 196.666 249.572 195.82 249.572 194.777C249.572 193.734 248.774 192.888 247.789 192.888Z" fill="#E6E6E6"/>
<path d="M297.325 192.888H277.135C276.151 192.888 275.352 193.734 275.352 194.777C275.352 195.82 276.151 196.666 277.135 196.666H297.325C298.31 196.666 299.108 195.82 299.108 194.777C299.108 193.734 298.31 192.888 297.325 192.888Z" fill="#E6E6E6"/>
<path d="M230.649 201.73H227.401C226.416 201.73 225.617 202.576 225.617 203.619C225.617 204.662 226.416 205.508 227.401 205.508H230.649C231.634 205.508 232.432 204.662 232.432 203.619C232.432 202.576 231.634 201.73 230.649 201.73Z" fill="#E6E6E6"/>
<path d="M267.802 201.73H264.553C263.568 201.73 262.77 202.576 262.77 203.619C262.77 204.662 263.568 205.508 264.553 205.508H267.802C268.786 205.508 269.585 204.662 269.585 203.619C269.585 202.576 268.786 201.73 267.802 201.73Z" fill="#E6E6E6"/>
<path d="M278.328 201.73H275.08C274.095 201.73 273.296 202.576 273.296 203.619C273.296 204.662 274.095 205.508 275.08 205.508H278.328C279.313 205.508 280.111 204.662 280.111 203.619C280.111 202.576 279.313 201.73 278.328 201.73Z" fill="#E6E6E6"/>
<path d="M257.696 201.415H237.506C236.521 201.415 235.723 202.261 235.723 203.304C235.723 204.347 236.521 205.193 237.506 205.193H257.696C258.681 205.193 259.479 204.347 259.479 203.304C259.479 202.261 258.681 201.415 257.696 201.415Z" fill="#E6E6E6"/>
<path d="M238.08 235.638H234.831C233.846 235.638 233.048 236.484 233.048 237.527C233.048 238.57 233.846 239.416 234.831 239.416H238.08C239.065 239.416 239.863 238.57 239.863 237.527C239.863 236.484 239.065 235.638 238.08 235.638Z" fill="#E6E6E6"/>
<path d="M248.606 235.638H245.358C244.373 235.638 243.574 236.484 243.574 237.527C243.574 238.57 244.373 239.416 245.358 239.416H248.606C249.591 239.416 250.389 238.57 250.389 237.527C250.389 236.484 249.591 235.638 248.606 235.638Z" fill="#E6E6E6"/>
<path d="M277.51 235.953H257.321C256.336 235.953 255.538 236.799 255.538 237.842C255.538 238.885 256.336 239.731 257.321 239.731H277.51C278.495 239.731 279.294 238.885 279.294 237.842C279.294 236.799 278.495 235.953 277.51 235.953Z" fill="#E6E6E6"/>
<path d="M200.927 235.638H197.679C196.694 235.638 195.896 236.484 195.896 237.527C195.896 238.57 196.694 239.416 197.679 239.416H200.927C201.912 239.416 202.711 238.57 202.711 237.527C202.711 236.484 201.912 235.638 200.927 235.638Z" fill="#E6E6E6"/>
<path d="M227.974 235.953H207.784C206.799 235.953 206.001 236.799 206.001 237.842C206.001 238.885 206.799 239.731 207.784 239.731H227.974C228.959 239.731 229.757 238.885 229.757 237.842C229.757 236.799 228.959 235.953 227.974 235.953Z" fill="#E6E6E6"/>
<path d="M210.835 227.111H207.586C206.601 227.111 205.803 227.956 205.803 229C205.803 230.043 206.601 230.889 207.586 230.889H210.835C211.819 230.889 212.618 230.043 212.618 229C212.618 227.956 211.819 227.111 210.835 227.111Z" fill="#E6E6E6"/>
<path d="M247.987 227.111H244.738C243.754 227.111 242.955 227.956 242.955 229C242.955 230.043 243.754 230.889 244.738 230.889H247.987C248.972 230.889 249.77 230.043 249.77 229C249.77 227.956 248.972 227.111 247.987 227.111Z" fill="#E6E6E6"/>
<path d="M258.513 227.111H255.265C254.28 227.111 253.482 227.956 253.482 229C253.482 230.043 254.28 230.889 255.265 230.889H258.513C259.498 230.889 260.297 230.043 260.297 229C260.297 227.956 259.498 227.111 258.513 227.111Z" fill="#E6E6E6"/>
<path d="M237.881 227.426H217.692C216.707 227.426 215.908 228.271 215.908 229.315C215.908 230.358 216.707 231.204 217.692 231.204H237.881C238.866 231.204 239.665 230.358 239.665 229.315C239.665 228.271 238.866 227.426 237.881 227.426Z" fill="#E6E6E6"/>
<path d="M220.742 218.583H217.493C216.509 218.583 215.71 219.429 215.71 220.472C215.71 221.516 216.509 222.362 217.493 222.362H220.742C221.727 222.362 222.525 221.516 222.525 220.472C222.525 219.429 221.727 218.583 220.742 218.583Z" fill="#E6E6E6"/>
<path d="M257.894 218.583H254.646C253.661 218.583 252.862 219.429 252.862 220.472C252.862 221.516 253.661 222.362 254.646 222.362H257.894C258.879 222.362 259.677 221.516 259.677 220.472C259.677 219.429 258.879 218.583 257.894 218.583Z" fill="#E6E6E6"/>
<path d="M268.421 218.583H265.172C264.187 218.583 263.389 219.429 263.389 220.472C263.389 221.516 264.187 222.362 265.172 222.362H268.421C269.406 222.362 270.204 221.516 270.204 220.472C270.204 219.429 269.406 218.583 268.421 218.583Z" fill="#E6E6E6"/>
<path d="M247.789 218.898H227.599C226.614 218.898 225.816 219.744 225.816 220.787C225.816 221.831 226.614 222.676 227.599 222.676H247.789C248.774 222.676 249.572 221.831 249.572 220.787C249.572 219.744 248.774 218.898 247.789 218.898Z" fill="#E6E6E6"/>
<path d="M230.649 210.056H227.401C226.416 210.056 225.617 210.902 225.617 211.945C225.617 212.989 226.416 213.834 227.401 213.834H230.649C231.634 213.834 232.432 212.989 232.432 211.945C232.432 210.902 231.634 210.056 230.649 210.056Z" fill="#E6E6E6"/>
<path d="M267.802 210.056H264.553C263.568 210.056 262.77 210.902 262.77 211.945C262.77 212.989 263.568 213.834 264.553 213.834H267.802C268.786 213.834 269.585 212.989 269.585 211.945C269.585 210.902 268.786 210.056 267.802 210.056Z" fill="#E6E6E6"/>
<path d="M278.328 210.056H275.08C274.095 210.056 273.296 210.902 273.296 211.945C273.296 212.989 274.095 213.834 275.08 213.834H278.328C279.313 213.834 280.111 212.989 280.111 211.945C280.111 210.902 279.313 210.056 278.328 210.056Z" fill="#E6E6E6"/>
<path d="M257.696 210.371H237.506C236.521 210.371 235.723 211.217 235.723 212.26C235.723 213.303 236.521 214.149 237.506 214.149H257.696C258.681 214.149 259.479 213.303 259.479 212.26C259.479 211.217 258.681 210.371 257.696 210.371Z" fill="#E6E6E6"/>
<path d="M216.667 358.112C216.531 358.184 216.395 358.256 216.259 358.322C215.398 358.774 214.531 359.22 213.658 359.66C211.045 360.978 208.399 362.231 205.72 363.419C198.671 366.542 191.438 369.178 184.066 371.309C182.828 363.13 181.627 343.839 180.475 329.651C180.258 326.981 180.041 324.495 179.825 322.298C179.619 319.413 179.228 316.546 178.654 313.718C178.598 313.496 178.517 313.283 178.413 313.082C178.531 314.216 178.654 317.601 178.772 322.298C178.834 324.495 178.89 326.981 178.952 329.651C179.243 343.307 179.546 361.89 179.849 372.47C178.989 372.693 178.122 372.917 177.255 373.126C176.71 373.264 176.159 373.395 175.608 373.52C174.939 373.677 174.27 373.835 173.602 373.979C172.902 374.137 172.202 374.287 171.503 374.432C160.068 376.811 148.443 378.006 136.79 378C136.016 378 135.248 377.993 134.474 377.987C134.239 377.987 134.003 377.98 133.762 377.974C133.081 377.961 132.375 377.948 131.657 377.928C117.886 377.524 104.206 375.436 90.8882 371.703L91.4269 329.651L91.5198 322.298L91.5569 319.51C91.2502 320.407 91.0667 321.345 91.012 322.298C90.7953 324.088 90.5724 326.627 90.3495 329.651C89.5012 341.3 88.6281 360.093 87.724 370.785C77.018 367.557 69.1912 364.612 59.4078 359.43C59.03 359.234 58.6461 359.03 58.2684 358.827C58.3365 358.322 58.4109 357.817 58.479 357.299C59.5873 349.139 58.2808 338.519 59.5069 329.651C60.4419 322.809 61.4078 316.237 62.38 310.661C63.5564 303.951 64.7515 298.677 65.9342 296.112C67.2964 293.154 68.6587 290.242 69.9776 287.454C70.5473 286.254 71.1067 285.075 71.6557 283.919C71.9529 283.295 72.2501 282.679 72.5411 282.075C73.8662 279.327 75.117 276.788 76.2626 274.539C77.0675 272.958 77.8106 271.528 78.4917 270.275C79.2905 268.799 79.9964 267.579 80.5784 266.654C84.8776 259.751 91.2744 254.611 98.7088 252.086L98.8945 252.033L99.0741 252.112L99.2784 252.21L111.08 247.638L116.35 234.198L143.415 232.434L147.787 235.956L150.022 237.76L152.406 239.682L156.79 243.217L158.035 243.624L159.886 244.228L172.549 248.347L172.679 248.288L172.865 248.34C179.63 250.634 185.552 255.105 189.806 261.131C190.227 261.708 190.617 262.305 190.995 262.909C192.023 264.522 193.41 267.074 195.045 270.275C195.72 271.593 196.432 273.023 197.181 274.539C197.633 275.45 201.534 288.346 205.33 301.517C208.878 313.849 212.333 326.423 212.785 329.651C212.865 330.248 212.952 330.851 213.033 331.448C213.547 335.18 214.054 338.939 214.543 342.605C215.268 348.043 215.974 353.291 216.649 357.981C216.655 358.027 216.661 358.066 216.667 358.112Z" fill="#7370FF"/>
<path opacity="0.2" d="M187.985 310.631L182.723 289.121L178.077 307.682L187.985 310.631Z" fill="black"/>
<path d="M9.8016 310.381C10.0744 311.223 10.5919 311.951 11.2798 312.462C11.9676 312.972 12.7905 313.238 13.6302 313.222L30.0341 312.775C30.8799 312.758 31.6978 312.451 32.3653 311.9C33.0328 311.35 33.5142 310.585 33.7375 309.72L36.0588 283.426C36.8824 283.821 37.779 284.016 38.6829 283.997C40.2691 283.955 41.7744 283.247 42.8678 282.029C43.9612 280.811 44.5531 279.183 44.5133 277.503C44.4735 275.822 43.8052 274.228 42.6555 273.069C41.5058 271.911 39.9688 271.284 38.3827 271.326C38.0214 271.325 37.661 271.365 37.3076 271.445C36.9234 271.004 36.4563 270.654 35.9365 270.416C35.4167 270.179 34.8557 270.059 34.2896 270.065L9.05665 270.755C8.84734 270.764 8.63909 270.791 8.43424 270.837C7.88088 270.947 7.35604 271.18 6.89505 271.522C6.43405 271.865 6.04759 272.307 5.76168 272.821C5.47578 273.335 5.29707 273.907 5.23756 274.5C5.17806 275.093 5.23916 275.693 5.41674 276.258L9.8016 310.381ZM36.5348 281.64L38.1866 275.374C38.3746 274.65 38.3789 273.887 38.1993 273.161C38.2794 273.16 38.3501 273.12 38.4303 273.12C39.5629 273.095 40.6585 273.547 41.477 274.377C42.2955 275.206 42.7701 276.346 42.7966 277.546C42.8231 278.746 42.3995 279.907 41.6185 280.777C40.8376 281.646 39.7631 282.152 38.6306 282.183C37.8984 282.207 37.1738 282.02 36.5348 281.64V281.64Z" fill="#2F2E41"/>
<path d="M8.43423 270.837C8.97182 274.094 15.0158 276.383 22.2833 275.985C28.9662 275.659 34.4305 273.173 35.4316 270.227C35.0611 270.11 34.6759 270.056 34.2896 270.065L9.05665 270.756C8.84734 270.764 8.63909 270.791 8.43423 270.837V270.837Z" fill="#3F3D56"/>
<path d="M23.6152 295.932C23.6484 295.923 23.68 295.909 23.7087 295.889L27.2711 293.419C27.3141 293.389 27.3495 293.348 27.374 293.3C27.3985 293.252 27.4113 293.199 27.4114 293.144C27.4114 293.09 27.3986 293.036 27.3741 292.988C27.3497 292.941 27.3143 292.9 27.2713 292.87L23.5685 290.301C23.5346 290.277 23.4965 290.261 23.4565 290.253C23.4164 290.244 23.3753 290.245 23.3354 290.253C23.2955 290.262 23.2576 290.279 23.2239 290.303C23.1902 290.328 23.1613 290.359 23.139 290.395C23.1167 290.431 23.1013 290.471 23.0937 290.514C23.0862 290.556 23.0866 290.6 23.095 290.642C23.1034 290.684 23.1195 290.724 23.1426 290.76C23.1656 290.795 23.1951 290.826 23.2293 290.849L26.5364 293.144L23.3698 295.34C23.3085 295.382 23.2633 295.447 23.2425 295.521C23.2216 295.595 23.2263 295.675 23.2557 295.746C23.2852 295.817 23.3375 295.875 23.4033 295.909C23.4691 295.943 23.5442 295.951 23.6152 295.932H23.6152Z" fill="#46F7E8"/>
<path d="M17.9887 296.207C18.0484 296.191 18.1023 296.157 18.1435 296.108C18.1846 296.059 18.211 295.999 18.2194 295.934C18.2278 295.869 18.2177 295.803 18.1905 295.745C18.1633 295.686 18.1202 295.637 18.0667 295.605L14.783 293.61L17.9568 291.113C17.9894 291.087 18.017 291.055 18.0378 291.018C18.0587 290.981 18.0725 290.94 18.0784 290.898C18.0843 290.855 18.0823 290.812 18.0723 290.77C18.0624 290.728 18.0449 290.689 18.0206 290.655C17.9964 290.62 17.966 290.591 17.9311 290.569C17.8963 290.547 17.8576 290.532 17.8174 290.526C17.7772 290.52 17.7363 290.522 17.6969 290.532C17.6575 290.543 17.6204 290.561 17.5878 290.587L14.0344 293.383C13.9931 293.415 13.9601 293.458 13.9383 293.508C13.9166 293.557 13.9068 293.611 13.9098 293.666C13.9128 293.72 13.9286 293.773 13.9557 293.819C13.9827 293.865 14.0203 293.904 14.0649 293.931L17.7586 296.174C17.8283 296.216 17.9108 296.228 17.9887 296.207V296.207Z" fill="#46F7E8"/>
<path d="M23.2609 298.097C23.2909 298.089 23.3195 298.076 23.3457 298.059C23.3805 298.037 23.4108 298.007 23.4348 297.972C23.4588 297.938 23.4762 297.898 23.4858 297.856C23.4954 297.814 23.4972 297.771 23.4909 297.728C23.4847 297.686 23.4706 297.645 23.4494 297.608L18.3995 288.813C18.3566 288.739 18.2878 288.686 18.2081 288.666C18.1285 288.646 18.0445 288.66 17.9746 288.705C17.9046 288.75 17.8544 288.823 17.8349 288.907C17.8154 288.991 17.8282 289.08 17.8705 289.155L22.9204 297.95C22.9548 298.01 23.0065 298.056 23.0678 298.083C23.1291 298.109 23.1967 298.114 23.2609 298.097V298.097Z" fill="#46F7E8"/>
<path d="M486.169 358.825C485.791 359.029 485.407 359.232 485.029 359.429C475.246 364.611 467.419 367.556 456.713 370.783C455.809 360.091 454.936 341.299 454.088 329.649C453.865 326.625 453.642 324.087 453.425 322.296C453.37 321.344 453.187 320.405 452.88 319.508L452.917 322.296L453.01 329.649L453.549 371.701C440.231 375.434 426.551 377.523 412.78 377.926C412.062 377.946 411.356 377.959 410.675 377.972C410.434 377.979 410.198 377.985 409.963 377.985C409.189 377.992 408.421 377.999 407.647 377.999C393.136 378.01 378.676 376.153 364.588 372.469C364.891 361.889 365.194 343.306 365.485 329.649C365.547 326.98 365.603 324.493 365.665 322.296C365.783 317.6 365.906 314.215 366.024 313.08C365.92 313.281 365.839 313.495 365.783 313.716C365.209 316.545 364.818 319.411 364.612 322.296C364.396 324.493 364.179 326.98 363.962 329.649C362.81 343.837 361.609 363.128 360.371 371.308C352.999 369.176 345.766 366.54 338.717 363.417C335.002 361.777 331.353 360.008 327.77 358.11C328.451 353.388 329.163 348.094 329.893 342.604C330.463 338.347 331.051 333.972 331.652 329.649C332.581 322.972 364.136 250.864 371.572 248.339L371.758 248.286L371.888 248.345L384.551 244.226L386.402 243.623L387.647 243.216L392.031 239.68L394.415 237.759L396.65 235.955L401.022 232.432L428.087 234.197L433.357 247.637L445.159 252.209L445.363 252.111L445.542 252.032L445.728 252.084C453.163 254.609 459.559 259.749 463.859 266.653C464.441 267.578 465.147 268.798 465.945 270.273C466.626 271.526 467.37 272.956 468.174 274.537C469.32 276.787 470.571 279.325 471.896 282.074C472.187 282.677 472.484 283.294 472.781 283.917C473.332 285.071 473.892 286.25 474.459 287.453C475.778 290.24 477.141 293.153 478.503 296.111C479.686 298.676 480.881 303.949 482.057 310.66C483.029 316.235 483.995 322.808 484.93 329.649C486.156 338.517 484.85 349.137 485.958 357.297C486.026 357.815 486.101 358.32 486.169 358.825Z" fill="#FFB6B6"/>
<path d="M406.79 227.608C424.175 227.608 438.268 212.678 438.268 194.262C438.268 175.846 424.175 160.916 406.79 160.916C389.405 160.916 375.311 175.846 375.311 194.262C375.311 212.678 389.405 227.608 406.79 227.608Z" fill="#FFB6B6"/>
<path opacity="0.2" d="M356.451 310.631L361.713 289.121L366.359 307.682L356.451 310.631Z" fill="black"/>
<path d="M496.46 296.616C494.577 324.087 496.528 336.182 486.138 358.832C476.684 363.734 466.837 367.733 456.713 370.783C455.66 371.098 454.606 371.404 453.549 371.701C440.231 375.434 426.551 377.523 412.78 377.926C412.062 377.946 411.356 377.959 410.675 377.972C410.434 377.979 410.198 377.985 409.963 377.985C409.189 377.992 408.421 377.999 407.647 377.999C393.136 378.01 378.676 376.153 364.588 372.469C363.176 372.102 361.77 371.715 360.371 371.308C353 369.176 345.766 366.54 338.717 363.417C335.002 361.777 331.353 360.008 327.77 358.11C326.958 357.678 326.147 357.245 325.349 356.799C321.243 349.15 318.909 339.849 318.859 328.672C321.701 309.413 490.181 280.008 496.46 296.616Z" fill="#11D2C2"/>
<path opacity="0.2" d="M496.455 301.321C496.551 299.62 496.659 297.863 496.784 296.034C490.505 279.425 322.026 308.831 319.183 328.09C319.191 329.855 319.263 331.569 319.382 333.242C326.265 314.234 486.323 286.285 496.455 301.321Z" fill="black"/>
<path d="M314.669 297.912L328.499 290.587L316.974 257.625L313.937 241.003C313.543 238.843 312.62 236.831 311.261 235.167C309.902 233.504 308.155 232.247 306.195 231.523C304.234 230.799 302.128 230.632 300.088 231.04C298.047 231.448 296.144 232.417 294.567 233.848V233.848C292.231 235.969 290.764 238.969 290.476 242.215C290.188 245.46 291.101 248.697 293.024 251.243L304.298 266.171L314.669 297.912Z" fill="#FFB6B6"/>
<path d="M328.498 284.483L310.06 294.249L324.053 340.696C325.058 344.031 326.859 347.035 329.282 349.416C331.705 351.796 334.668 353.474 337.883 354.284C341.847 355.284 346.009 354.921 349.766 353.246C353.522 351.572 356.677 348.674 358.774 344.972L395.879 277.598C398.509 272.955 399.321 267.408 398.141 262.14C396.961 256.872 393.884 252.301 389.566 249.404V249.404C387.244 247.846 384.638 246.824 381.918 246.403C379.198 245.983 376.425 246.173 373.779 246.963C371.133 247.753 368.674 249.124 366.562 250.988C364.45 252.851 362.731 255.164 361.519 257.777L338.87 308.899L328.498 284.483Z" fill="#3F3D56"/>
<path d="M129.728 225.307C148.857 225.307 164.364 208.88 164.364 188.617C164.364 168.353 148.857 151.927 129.728 151.927C110.6 151.927 95.093 168.353 95.093 188.617C95.093 208.88 110.6 225.307 129.728 225.307Z" fill="#A0616A"/>
<path d="M95.5089 163.333C98.325 159.312 102.373 156.454 105.469 152.671C107.167 150.595 108.578 148.243 110.488 146.385C114.036 142.933 118.998 141.518 123.813 141.343C129.09 141.199 134.325 142.373 139.094 144.771C143.862 147.168 148.031 150.721 151.263 155.142C153.78 153.579 156.297 152.016 158.814 150.453C159.808 153.225 160.802 155.998 161.797 158.77C162.613 158.019 163.653 157.598 164.734 157.582C165.816 157.565 166.867 157.955 167.703 158.682C168.538 159.409 169.104 160.426 169.3 161.552C169.495 162.679 169.308 163.842 168.771 164.836C169.37 162.876 172.114 162.46 173.627 163.755C175.14 165.05 175.545 167.355 175.299 169.399C174.989 171.641 174.053 173.734 172.611 175.409C171.17 177.083 169.288 178.263 167.209 178.796C163.924 179.571 160.102 178.756 157.473 180.981C155.366 182.765 154.729 186.014 152.579 187.738C149.929 189.864 146.183 188.881 142.888 189.351C137.125 190.173 132.561 196.417 133.254 202.534C132.732 200.604 132.184 198.618 131.001 197.05C129.817 195.482 127.824 194.422 126.008 194.998C123.008 195.951 122.517 200.284 123.244 203.511C125.173 212.071 132.482 225.908 132.482 225.908C122.991 229.874 111.684 226.123 104.361 218.598C97.0382 211.072 93.2243 200.416 91.5629 189.752C90.1541 180.71 90.3537 170.694 95.5089 163.333Z" fill="#2F2E41"/>
<path d="M446.238 212.644C452.827 196.64 449.094 181.914 441.061 174.101V174.095C437.903 166.597 433.705 160.812 428.9 159.454C426.578 157.873 424.324 156.017 421.823 155.072C420.657 154.61 419.416 154.403 418.173 154.462C416.93 154.522 415.711 154.848 414.59 155.42L413.315 155.059C412.231 152.127 410.962 152.068 409.55 153.997C404.113 151.314 399.215 150.113 394.856 150.113C380.639 150.113 372.23 162.865 370.001 178.279L381.884 181.631L386.014 174.659L384.107 182.261L390.664 184.104C400.646 197.872 388.701 229.633 373.562 247.304C377.165 246.248 380.755 245.356 384.33 244.628L397.321 224.451L389.271 242.817C393.451 242.168 398.782 242.791 404.609 244.044C406.572 241.328 407.606 237.708 406.59 234.48C408.25 237.884 409.395 241.543 409.983 245.323C422.281 248.504 439.055 250.138 448.095 251.345C455.4 248.819 455.419 220.293 446.238 212.644Z" fill="#2F2E41"/>
<path d="M450.525 158.207C455.351 169.655 445.613 174.579 436.691 174.44C428.63 174.314 421.778 168.315 421.367 159.785C421.169 155.689 422.515 151.678 425.11 148.634C427.704 145.589 431.334 143.761 435.201 143.552C443.252 143.116 447.237 150.408 450.525 158.207Z" fill="#2F2E41"/>
<path d="M226.618 344.571L218.668 330.524L245.102 309.279L256.093 296.986C257.521 295.389 259.32 294.217 261.309 293.587C263.299 292.957 265.41 292.891 267.431 293.396C269.452 293.901 271.312 294.959 272.827 296.464C274.341 297.969 275.456 299.869 276.059 301.974V301.974C276.954 305.093 276.671 308.458 275.268 311.359C273.865 314.26 271.453 316.471 268.541 317.524L251.462 323.7L226.618 344.571Z" fill="#A0616A"/>
<path d="M232.364 344.108L219.986 355.036L216.649 357.981L216.259 358.322C215.398 358.774 214.531 359.22 213.658 359.66C211.045 360.978 208.399 362.231 205.72 363.418C198.671 366.542 191.438 369.178 184.066 371.309C182.667 371.716 181.261 372.103 179.849 372.47C178.989 372.693 178.122 372.916 177.255 373.126C176.71 373.264 176.159 373.395 175.608 373.52C174.939 373.677 174.27 373.835 173.602 373.979C172.902 374.137 172.202 374.287 171.503 374.432C169.62 372.534 168.121 370.251 167.097 367.72C166.073 365.19 165.545 362.465 165.546 359.712C165.546 359.535 165.546 359.352 165.552 359.168L167.54 305.164L168.419 281.229C168.554 275.816 170.683 270.674 174.349 266.902C178.016 263.129 182.93 261.025 188.042 261.039C188.636 261.039 189.224 261.072 189.806 261.131C190.227 261.708 190.617 262.305 190.995 262.909C192.023 264.522 193.41 267.074 195.045 270.275C195.72 271.593 196.432 273.023 197.181 274.539C197.633 275.45 201.534 288.346 205.33 301.517L203.658 315.272L200.636 340.067L213.033 331.448L221.764 325.374L222.798 327.204L225.491 331.966L230.692 341.149L232.364 344.108Z" fill="#3F3D56"/>
<path d="M225.578 328.673C225.572 329.788 225.547 330.884 225.491 331.966C225.362 334.952 225.035 337.924 224.513 340.861C223.658 345.792 222.133 350.567 219.986 355.036C219.702 355.633 219.398 356.223 219.089 356.8C218.29 357.246 217.479 357.679 216.667 358.112C216.531 358.184 216.395 358.256 216.259 358.322C212.81 360.139 209.297 361.838 205.72 363.419C198.671 366.542 191.438 369.178 184.066 371.309C182.667 371.716 181.261 372.103 179.849 372.47C177.094 373.192 174.312 373.846 171.503 374.432C160.068 376.811 148.443 378.006 136.79 378C136.016 378 135.248 377.993 134.474 377.987C134.239 377.987 134.003 377.98 133.762 377.974C133.081 377.961 132.375 377.948 131.657 377.928C117.886 377.525 104.206 375.436 90.8882 371.703C89.8293 371.408 88.7746 371.102 87.724 370.785C77.6002 367.735 67.7531 363.735 58.2994 358.833C47.9091 336.184 49.8596 324.088 47.9772 296.618C51.8411 286.391 117.211 293.613 167.54 305.164C181.199 308.3 193.744 311.757 203.658 315.273C213.9 318.9 221.324 322.586 224.234 326.05C224.914 326.767 225.381 327.679 225.578 328.673V328.673Z" fill="#11D2C2"/>
<path opacity="0.2" d="M47.9809 301.321C47.8848 299.62 47.7773 297.863 47.6519 296.034C53.9307 279.425 222.41 308.831 225.252 328.09C225.245 329.855 225.173 331.569 225.053 333.242C218.171 314.234 58.1128 286.285 47.9809 301.321Z" fill="black"/>
</g>
<defs>
<clipPath id="clip0_1_2">
<rect width="545" height="378" fill="white"/>
</clipPath>
</defs>
</svg>
